<svg width="12" height="12" viewBox="0 0 12 12" fill="none" xmlns="http://www.w3.org/2000/svg">
<path d="M6.00006 4.17757C4.99655 4.17757 4.1776 4.99651 4.1776 6.00003C4.1776 7.00354 4.99655 7.82249 6.00006 7.82249C7.00358 7.82249 7.82253 7.00354 7.82253 6.00003C7.82253 4.99651 7.00358 4.17757 6.00006 4.17757ZM11.4661 6.00003C11.4661 5.24534 11.4729 4.49749 11.4305 3.74417C11.3882 2.86917 11.1885 2.09261 10.5487 1.45276C9.90749 0.811552 9.13229 0.613309 8.25729 0.570927C7.5026 0.528544 6.75475 0.53538 6.00143 0.53538C5.24674 0.53538 4.49889 0.528544 3.74557 0.570927C2.87057 0.613309 2.09401 0.812919 1.45417 1.45276C0.812955 2.09397 0.614713 2.86917 0.57233 3.74417C0.529948 4.49886 0.536784 5.24671 0.536784 6.00003C0.536784 6.75335 0.529948 7.50257 0.57233 8.25589C0.614713 9.13089 0.814323 9.90745 1.45417 10.5473C2.09538 11.1885 2.87057 11.3867 3.74557 11.4291C4.50026 11.4715 5.24811 11.4647 6.00143 11.4647C6.75612 11.4647 7.50397 11.4715 8.25729 11.4291C9.13229 11.3867 9.90886 11.1871 10.5487 10.5473C11.1899 9.90608 11.3882 9.13089 11.4305 8.25589C11.4743 7.50257 11.4661 6.75471 11.4661 6.00003ZM6.00006 8.80413C4.44831 8.80413 3.19596 7.55178 3.19596 6.00003C3.19596 4.44827 4.44831 3.19593 6.00006 3.19593C7.55182 3.19593 8.80417 4.44827 8.80417 6.00003C8.80417 7.55178 7.55182 8.80413 6.00006 8.80413ZM8.91901 3.73597C8.55671 3.73597 8.26413 3.44339 8.26413 3.08108C8.26413 2.71878 8.55671 2.4262 8.91901 2.4262C9.28132 2.4262 9.57389 2.71878 9.57389 3.08108C9.574 3.16711 9.55714 3.25232 9.52426 3.33182C9.49139 3.41133 9.44316 3.48356 9.38232 3.5444C9.32149 3.60523 9.24925 3.65346 9.16975 3.68634C9.09025 3.71921 9.00504 3.73607 8.91901 3.73597Z" fill="white"/>
</svg>
