<svg width="28" height="28" viewBox="0 0 28 28" fill="none" xmlns="http://www.w3.org/2000/svg">
<path d="M1.63675 8.99992H0.666748V0.666587L1.63675 8.99992ZM1.63675 8.99992C2.74316 6.26347 4.72622 3.97143 7.27513 2.48302C9.82404 0.99461 12.7948 0.393942 15.7217 0.775154C18.6486 1.15637 21.3664 2.49791 23.449 4.58955C25.5317 6.68118 26.8615 9.40469 27.2301 12.3333M1.63675 8.99992H9.00008M26.3651 18.9999H27.3334V27.3333L26.3651 18.9999ZM26.3651 18.9999C25.2571 21.7348 23.2735 24.025 20.7248 25.5121C18.1761 26.9992 15.2063 27.5991 12.2802 27.218C9.35418 26.837 6.63708 25.4964 4.5543 23.4061C2.47153 21.3159 1.14067 18.594 0.770081 15.6666M26.3651 18.9999H19.0001" stroke="#121212" stroke-linecap="round" stroke-linejoin="round"/>
</svg>
